<svg xmlns="http://www.w3.org/2000/svg" viewBox="0 0 766 672" width="766" height="672" role="img" aria-label="Colorized logtree console output">
<title>logtree console output</title>
<rect x="0.5" y="0.5" width="765" height="671" rx="8" fill="#ffffff" stroke="#d0d7de"/>
<g stroke-linecap="round">
<line x1="94.57" y1="92.00" x2="94.57" y2="120.50" stroke="#8b949e" stroke-width="1.5" stroke-linecap="round"/>
<line x1="94.57" y1="149.00" x2="94.57" y2="177.50" stroke="#8b949e" stroke-width="1.5" stroke-linecap="round"/>
<line x1="94.57" y1="206.00" x2="94.57" y2="234.50" stroke="#8b949e" stroke-width="1.5" stroke-linecap="round"/>
<line x1="71.02" y1="73.00" x2="71.02" y2="253.50" stroke="#8b949e" stroke-width="1.5" stroke-linecap="round"/>
<line x1="47.47" y1="54.00" x2="47.47" y2="272.50" stroke="#8b949e" stroke-width="1.5" stroke-linecap="round"/>
<line x1="47.47" y1="301.00" x2="47.47" y2="367.50" stroke="#8b949e" stroke-width="1.5" stroke-linecap="round"/>
<line x1="118.12" y1="472.00" x2="118.12" y2="500.50" stroke="#8b949e" stroke-width="1.5" stroke-linecap="round"/>
<line x1="118.12" y1="529.00" x2="118.12" y2="557.50" stroke="#8b949e" stroke-width="1.5" stroke-linecap="round"/>
<line x1="94.57" y1="453.00" x2="94.57" y2="576.50" stroke="#8b949e" stroke-width="1.5" stroke-linecap="round"/>
<line x1="71.02" y1="415.00" x2="71.02" y2="595.50" stroke="#8b949e" stroke-width="1.5" stroke-linecap="round"/>
<line x1="47.47" y1="396.00" x2="47.47" y2="614.50" stroke="#8b949e" stroke-width="1.5" stroke-linecap="round"/>
<line x1="23.93" y1="35.00" x2="23.93" y2="633.50" stroke="#8b949e" stroke-width="1.5" stroke-linecap="round"/>
<line x1="23.93" y1="44.50" x2="35.70" y2="44.50" stroke="#8b949e" stroke-width="1.5" stroke-linecap="round"/>
<line x1="47.47" y1="63.50" x2="59.25" y2="63.50" stroke="#8b949e" stroke-width="1.5" stroke-linecap="round"/>
<line x1="71.02" y1="82.50" x2="82.80" y2="82.50" stroke="#8b949e" stroke-width="1.5" stroke-linecap="round"/>
<line x1="94.57" y1="101.50" x2="106.35" y2="101.50" stroke="#8b949e" stroke-width="1.5" stroke-linecap="round"/>
<line x1="94.57" y1="120.50" x2="106.35" y2="120.50" stroke="#8b949e" stroke-width="1.5" stroke-linecap="round"/>
<line x1="71.02" y1="139.50" x2="82.80" y2="139.50" stroke="#8b949e" stroke-width="1.5" stroke-linecap="round"/>
<line x1="94.57" y1="158.50" x2="106.35" y2="158.50" stroke="#8b949e" stroke-width="1.5" stroke-linecap="round"/>
<line x1="94.57" y1="177.50" x2="106.35" y2="177.50" stroke="#8b949e" stroke-width="1.5" stroke-linecap="round"/>
<line x1="71.02" y1="196.50" x2="82.80" y2="196.50" stroke="#8b949e" stroke-width="1.5" stroke-linecap="round"/>
<line x1="94.57" y1="215.50" x2="106.35" y2="215.50" stroke="#8b949e" stroke-width="1.5" stroke-linecap="round"/>
<line x1="94.57" y1="234.50" x2="106.35" y2="234.50" stroke="#8b949e" stroke-width="1.5" stroke-linecap="round"/>
<line x1="71.02" y1="253.50" x2="82.80" y2="253.50" stroke="#8b949e" stroke-width="1.5" stroke-linecap="round"/>
<line x1="47.47" y1="272.50" x2="59.25" y2="272.50" stroke="#8b949e" stroke-width="1.5" stroke-linecap="round"/>
<line x1="23.93" y1="291.50" x2="35.70" y2="291.50" stroke="#8b949e" stroke-width="1.5" stroke-linecap="round"/>
<line x1="47.47" y1="310.50" x2="59.25" y2="310.50" stroke="#8b949e" stroke-width="1.5" stroke-linecap="round"/>
<line x1="47.47" y1="329.50" x2="59.25" y2="329.50" stroke="#8b949e" stroke-width="1.5" stroke-linecap="round"/>
<line x1="47.47" y1="348.50" x2="59.25" y2="348.50" stroke="#8b949e" stroke-width="1.5" stroke-linecap="round"/>
<line x1="47.47" y1="367.50" x2="59.25" y2="367.50" stroke="#8b949e" stroke-width="1.5" stroke-linecap="round"/>
<line x1="23.93" y1="386.50" x2="35.70" y2="386.50" stroke="#8b949e" stroke-width="1.5" stroke-linecap="round"/>
<line x1="47.47" y1="405.50" x2="59.25" y2="405.50" stroke="#8b949e" stroke-width="1.5" stroke-linecap="round"/>
<line x1="71.02" y1="424.50" x2="82.80" y2="424.50" stroke="#8b949e" stroke-width="1.5" stroke-linecap="round"/>
<line x1="71.02" y1="443.50" x2="82.80" y2="443.50" stroke="#8b949e" stroke-width="1.5" stroke-linecap="round"/>
<line x1="94.57" y1="462.50" x2="106.35" y2="462.50" stroke="#8b949e" stroke-width="1.5" stroke-linecap="round"/>
<line x1="118.12" y1="481.50" x2="129.90" y2="481.50" stroke="#8b949e" stroke-width="1.5" stroke-linecap="round"/>
<line x1="118.12" y1="500.50" x2="129.90" y2="500.50" stroke="#8b949e" stroke-width="1.5" stroke-linecap="round"/>
<line x1="94.57" y1="519.50" x2="106.35" y2="519.50" stroke="#8b949e" stroke-width="1.5" stroke-linecap="round"/>
<line x1="118.12" y1="538.50" x2="129.90" y2="538.50" stroke="#8b949e" stroke-width="1.5" stroke-linecap="round"/>
<line x1="118.12" y1="557.50" x2="129.90" y2="557.50" stroke="#8b949e" stroke-width="1.5" stroke-linecap="round"/>
<line x1="94.57" y1="576.50" x2="106.35" y2="576.50" stroke="#8b949e" stroke-width="1.5" stroke-linecap="round"/>
<line x1="71.02" y1="595.50" x2="82.80" y2="595.50" stroke="#8b949e" stroke-width="1.5" stroke-linecap="round"/>
<line x1="47.47" y1="614.50" x2="59.25" y2="614.50" stroke="#8b949e" stroke-width="1.5" stroke-linecap="round"/>
<line x1="23.93" y1="633.50" x2="35.70" y2="633.50" stroke="#8b949e" stroke-width="1.5" stroke-linecap="round"/>
</g>
<g font-family="ui-monospace, SFMono-Regular, &quot;SF Mono&quot;, Menlo, Consolas, monospace" font-size="13">
<text x="20.00" y="29" xml:space="preserve"><tspan fill="#1b7c83">▶</tspan><tspan fill="#24292f"> ETL run</tspan></text>
<text x="43.55" y="48" xml:space="preserve"><tspan fill="#1b7c83">▶</tspan><tspan fill="#24292f"> Ingest</tspan></text>
<text x="67.10" y="67" xml:space="preserve"><tspan fill="#8250df">▣ sources</tspan></text>
<text x="90.65" y="86" xml:space="preserve"><tspan fill="#1b7c83">▶</tspan><tspan fill="#24292f"> prices</tspan></text>
<text x="114.20" y="105" xml:space="preserve"><tspan fill="#0969da">ℹ</tspan><tspan fill="#24292f"> 24,318 rows pulled</tspan></text>
<text x="114.20" y="124" xml:space="preserve"><tspan fill="#1a7f37">✔</tspan><tspan fill="#24292f"> Done  4m 31s</tspan></text>
<text x="90.65" y="143" xml:space="preserve"><tspan fill="#1b7c83">▶</tspan><tspan fill="#24292f"> stocks</tspan></text>
<text x="114.20" y="162" xml:space="preserve"><tspan fill="#0969da">ℹ</tspan><tspan fill="#24292f"> 8,790 rows pulled</tspan></text>
<text x="114.20" y="181" xml:space="preserve"><tspan fill="#1a7f37">✔</tspan><tspan fill="#24292f"> Done  1m 27s</tspan></text>
<text x="90.65" y="200" xml:space="preserve"><tspan fill="#1b7c83">▶</tspan><tspan fill="#24292f"> fx</tspan></text>
<text x="114.20" y="219" xml:space="preserve"><tspan fill="#0969da">ℹ</tspan><tspan fill="#24292f"> 512 rows pulled</tspan></text>
<text x="114.20" y="238" xml:space="preserve"><tspan fill="#1a7f37">✔</tspan><tspan fill="#24292f"> Done  58.00s</tspan></text>
<text x="90.65" y="257" xml:space="preserve"><tspan fill="#1a7f37">✔</tspan><tspan fill="#24292f"> Done  7m 43s</tspan></text>
<text x="67.10" y="276" xml:space="preserve"><tspan fill="#1a7f37">✔</tspan><tspan fill="#24292f"> Done  12m 29s</tspan></text>
<text x="43.55" y="295" xml:space="preserve"><tspan fill="#1b7c83">▶</tspan><tspan fill="#24292f"> Connect primary</tspan></text>
<text x="67.10" y="314" xml:space="preserve"><tspan fill="#cf222e">✖</tspan><tspan fill="#24292f"> primary db unreachable (timeout after 5s)</tspan></text>
<text x="67.10" y="333" xml:space="preserve"><tspan fill="#0969da">ℹ</tspan><tspan fill="#24292f"> failing over to replica db-2</tspan></text>
<text x="67.10" y="352" xml:space="preserve"><tspan fill="#1a7f37">✔</tspan><tspan fill="#24292f"> connected to replica, 12ms latency</tspan></text>
<text x="67.10" y="371" xml:space="preserve"><tspan fill="#1a7f37">✔</tspan><tspan fill="#24292f"> Done  4m 31s</tspan></text>
<text x="43.55" y="390" xml:space="preserve"><tspan fill="#1b7c83">▶</tspan><tspan fill="#24292f"> Load</tspan></text>
<text x="67.10" y="409" xml:space="preserve"><tspan fill="#1b7c83">▶</tspan><tspan fill="#24292f"> Table: facts</tspan></text>
<text x="90.65" y="428" xml:space="preserve"><tspan fill="#0969da">ℹ</tspan><tspan fill="#24292f"> opened connection pool (5 conns)</tspan></text>
<text x="90.65" y="447" xml:space="preserve"><tspan fill="#8250df">▣ Batches</tspan></text>
<text x="114.20" y="466" xml:space="preserve"><tspan fill="#1b7c83">▶</tspan><tspan fill="#24292f"> Batch 1/2</tspan></text>
<text x="137.75" y="485" xml:space="preserve"><tspan fill="#0969da">ℹ</tspan><tspan fill="#24292f"> upserted rows 1-500 of 900</tspan></text>
<text x="137.75" y="504" xml:space="preserve"><tspan fill="#1a7f37">✔</tspan><tspan fill="#24292f"> Done  12.50s</tspan></text>
<text x="114.20" y="523" xml:space="preserve"><tspan fill="#1b7c83">▶</tspan><tspan fill="#24292f"> Batch 2/2</tspan></text>
<text x="137.75" y="542" xml:space="preserve"><tspan fill="#0969da">ℹ</tspan><tspan fill="#24292f"> upserted rows 501-900 of 900</tspan></text>
<text x="137.75" y="561" xml:space="preserve"><tspan fill="#1a7f37">✔</tspan><tspan fill="#24292f"> Done  9.10s</tspan></text>
<text x="114.20" y="580" xml:space="preserve"><tspan fill="#1a7f37">✔</tspan><tspan fill="#24292f"> Done  8m 14s</tspan></text>
<text x="90.65" y="599" xml:space="preserve"><tspan fill="#1a7f37">✔</tspan><tspan fill="#24292f"> Done  8m 39s</tspan></text>
<text x="67.10" y="618" xml:space="preserve"><tspan fill="#1a7f37">✔</tspan><tspan fill="#24292f"> Done  11m 33s</tspan></text>
<text x="43.55" y="637" xml:space="preserve"><tspan fill="#1a7f37">✔</tspan><tspan fill="#24292f"> Done  29m 19s</tspan></text>
<text x="20.00" y="656" xml:space="preserve"><tspan fill="#1a7f37">✔</tspan><tspan fill="#24292f"> Run complete in 31m 15s</tspan></text>
</g>
<g font-family="-apple-system, BlinkMacSystemFont, &quot;Segoe UI&quot;, Helvetica, Arial, sans-serif" font-size="11">
<line x1="98.65" y1="25.50" x2="455.00" y2="25.50" stroke="#d0d7de" stroke-width="1" stroke-dasharray="1 3"/>
<circle cx="459.00" cy="25.50" r="2" fill="#1b7c83"/>
<text x="465.00" y="29.17" fill="#1b7c83">open step — runs on ▶, closes ✔</text>
<line x1="145.75" y1="63.50" x2="455.00" y2="63.50" stroke="#d0d7de" stroke-width="1" stroke-dasharray="1 3"/>
<circle cx="459.00" cy="63.50" r="2" fill="#8250df"/>
<text x="465.00" y="67.17" fill="#8250df">group header: adjacent steps collapse here</text>
<line x1="279.20" y1="101.50" x2="455.00" y2="101.50" stroke="#d0d7de" stroke-width="1" stroke-dasharray="1 3"/>
<circle cx="459.00" cy="101.50" r="2" fill="#0969da"/>
<text x="465.00" y="105.17" fill="#0969da">info leaf line</text>
<line x1="232.10" y1="177.50" x2="455.00" y2="177.50" stroke="#d0d7de" stroke-width="1" stroke-dasharray="1 3"/>
<circle cx="459.00" cy="177.50" r="2" fill="#1a7f37"/>
<text x="465.00" y="181.17" fill="#1a7f37">elapsed time, tracked per step</text>
<line x1="412.65" y1="310.50" x2="455.00" y2="310.50" stroke="#d0d7de" stroke-width="1" stroke-dasharray="1 3"/>
<circle cx="459.00" cy="310.50" r="2" fill="#cf222e"/>
<text x="465.00" y="314.17" fill="#cf222e">error leaf elevates the step — run keeps going</text>
<line x1="357.70" y1="348.50" x2="455.00" y2="348.50" stroke="#d0d7de" stroke-width="1" stroke-dasharray="1 3"/>
<circle cx="459.00" cy="348.50" r="2" fill="#1a7f37"/>
<text x="465.00" y="352.17" fill="#1a7f37">… then closes ✔ once recovered</text>
<line x1="224.25" y1="652.50" x2="455.00" y2="652.50" stroke="#d0d7de" stroke-width="1" stroke-dasharray="1 3"/>
<circle cx="459.00" cy="652.50" r="2" fill="#1a7f37"/>
<text x="465.00" y="656.17" fill="#1a7f37">run summary line (with_logging)</text>
</g>
</svg>

